<svg xmlns="http://www.w3.org/2000/svg" width="207" height="214" fill="none" viewBox="0 0 207 214">
<!-- SVG created with Arrow, by QuiverAI (https://quiver.ai) -->
  <path d="m103.5 36.25c-41.49 0-75.15 33.66-75.15 75.14 0 41.24 33.36 74.02 75.06 74.02 41.71 0 74.97-32.8 74.97-74.02 0-41.31-33.57-75.14-74.88-75.14z" fill="url(#paint0_linear_102_233)"/>
  <path d="m116.5 13.96c-2.51-0.29-3.93 1.13-3.67 3.39 0.19 1.78 1.32 2.66 3.57 2.91 45.33 5.2 80.25 44.69 80.25 90.4 0 49.39-39.63 92.3-93.32 92.3-50.47 0-92.33-39.49-92.21-92.87 0.1-43.55 33.73-82.62 77.1-89.57l-2.2 11.31 18.05-16.04-19.54-11.29 3.19 9.85c-45.59 6.78-83.1 46.64-83.1 95.98 0 54.4 44.37 98.77 98.76 98.77 54.74 0 99.39-45.31 99.39-98.56 0-48.93-36.72-90.95-86.27-96.58z" fill="url(#paint1_linear_102_233)"/>
  <path d="m80.95 151.8c-0.62 0-1.24-0.18-1.79-0.55-1-0.65-1.6-1.82-1.6-3.06v-74.94c0-1.27 0.65-2.44 1.75-3.06s2.44-0.6 3.54 0.05l63.74 37.44c1.07 0.62 1.75 1.81 1.75 3.1 0 1.26-0.68 2.46-1.75 3.1l-63.74 37.42c-0.57 0.32-1.24 0.5-1.9 0.5zm3.16-72.99v64.59l54.93-33.32-54.93-31.27z" fill="url(#paint2_linear_102_233)"/>
  <defs>
    <linearGradient id="paint0_linear_102_233" x1="61.74" x2="146.8" y1="46.99" y2="172" gradientUnits="userSpaceOnUse">
      <stop stop-color="#2A2545" offset="0"/>
      <stop stop-color="#25203F" offset="1"/>
    </linearGradient>
    <linearGradient id="paint1_linear_102_233" x1="55.1" x2="151.5" y1="192.6" y2="21.73" gradientUnits="userSpaceOnUse">
      <stop stop-color="#f472b6" offset="0"/>
      <stop stop-color="#a855f7" offset=".5104"/>
      <stop stop-color="#3b82f6" offset="1"/>
    </linearGradient>
    <linearGradient id="paint2_linear_102_233" x1="104" x2="104" y1="70.53" y2="151.8" gradientUnits="userSpaceOnUse">
      <stop stop-color="#a855f7" offset="0"/>
      <stop stop-color="#c465f7" offset="1"/>
    </linearGradient>
  </defs>
</svg>