<svg xmlns="http://www.w3.org/2000/svg" width="256" height="273" fill="none" viewBox="0 0 256 273">
<!-- SVG created with Arrow, by QuiverAI (https://quiver.ai) -->
  <path d="m126.5 14.76c-12.26 0-23.55 1.66-32.65 4.8-3.59 1.28-4.54 6.15-1.9 8.62 1.55 1.45 3.75 1.59 5.79 0.92 9-2.39 15.5-3.24 27.26-3.24 55.64 0 103.5 48.6 103.5 102.4 0 54.7-45.25 99.44-103.3 99.44l-7.16-0.19 5.39-11.33c1.8-3.82-2.41-7.07-5.55-4.82l-24.86 18.15c-2.64 1.93-2.5 6.13 0.29 8.15l23.79 18.91c3.33 2.62 8.48-0.33 6.77-4.91l-4.62-12.2 5.95 0.25c61.82 0 114.6-49.85 114.6-111.8 0-61.28-49.83-113.2-113.3-113.2z" fill="url(#paint1_radial_244_608)" stroke="#60a5fa" stroke-miterlimit="10" stroke-width="2"/>
  <path d="m25.08 44.93-0.09 163.8c-0.01 13.22 13.26 22.99 26.68 17.64l1.16-0.49 143.6-82.42c11.92-6.51 12.47-25 0-32.65l-142.4-84.85c-11.85-7.25-28.94 1.17-28.94 18.97z" fill="url(#paint2_linear_244_608)" stroke="url(#paint3_linear_244_608)" stroke-miterlimit="10" stroke-width="2"/>
  <path d="m25.11 135.9-0.03-90.96c0-15.16 14.08-24.85 26.84-18.25l104.2 59.66-15.89 21.36-73.94-41.39c-6.12-3.4-12.29 1.03-12.29 7.35l0.02 68.55-28.9-6.32z" fill="url(#paint4_linear_244_608)" opacity=".2"/>
  <path d="m55.71 73.56-0.04 106.7c-0.01 6.42 6.42 8.13 11.44 5.24l89.17-51.58c6.33-3.64 5.51-11.18-0.37-14.55l-88.8-51.23c-4.86-2.82-11.4-0.77-11.4 5.43z" fill="url(#paint5_linear_244_608)" stroke="url(#paint6_linear_244_608)" stroke-miterlimit="10" stroke-width="2"/>
  <defs>
    <radialGradient id="paint0_radial_244_608" cx="0" cy="0" r="1" gradientTransform="translate(127.9 136) scale(189.8)" gradientUnits="userSpaceOnUse">
      <stop stop-color="#C0BDFF" offset=".2864"/>
      <stop stop-color="#D4CCFF" stop-opacity=".7066" offset=".4968"/>
      <stop stop-color="#F5F1FF" stop-opacity=".2107" offset=".8766"/>
      <stop stop-color="#FFFCFF" stop-opacity=".05" offset="1"/>
    </radialGradient>
    <radialGradient id="paint1_radial_244_608" cx="0" cy="0" r="1" gradientTransform="translate(127.9 136) scale(116.2)" gradientUnits="userSpaceOnUse">
      <stop stop-color="#B8D0FF" offset=".0989"/>
      <stop stop-color="#E0D4FF" offset=".6861"/>
      <stop stop-color="#FFFEFF" offset=".9473"/>
    </radialGradient>
    <linearGradient id="paint2_linear_244_608" x1="40.94" x2="193.9" y1="30.88" y2="140.9" gradientUnits="userSpaceOnUse">
      <stop stop-color="#484068" offset="0"/>
      <stop stop-color="#453A60" offset=".1709"/>
      <stop stop-color="#2D1A50" offset=".499"/>
      <stop stop-color="#150530" offset=".9649"/>
      <stop stop-color="#120030" offset="1"/>
    </linearGradient>
    <linearGradient id="paint3_linear_244_608" x1="23.98" x2="206.7" y1="126.3" y2="126.3" gradientUnits="userSpaceOnUse">
      <stop stop-color="#3b82f6" offset="0"/>
      <stop stop-color="#a855f7" offset="1"/>
    </linearGradient>
    <linearGradient id="paint4_linear_244_608" x1="57.72" x2="76.4" y1="25.09" y2="138.6" gradientUnits="userSpaceOnUse">
      <stop stop-color="#F8F8F8" offset="0"/>
      <stop stop-color="#F8F8F8" stop-opacity=".25" offset="1"/>
    </linearGradient>
    <linearGradient id="paint5_linear_244_608" x1="64.83" x2="148.4" y1="72.54" y2="139.8" gradientUnits="userSpaceOnUse">
      <stop stop-color="#1A0B30" offset="0"/>
      <stop stop-color="#241D30" offset=".9952"/>
    </linearGradient>
    <linearGradient id="paint6_linear_244_608" x1="54.67" x2="161.3" y1="126.3" y2="126.3" gradientUnits="userSpaceOnUse">
      <stop stop-color="#a855f7" offset="0"/>
      <stop stop-color="#f472b6" offset="1"/>
    </linearGradient>
  </defs>
</svg>